{
	"scenes":[{
		"nodes":[0,
		1,
		4]
	}],
	"asset":{
		"version":"2.0",
		"generator":"Created using the official Cinema 4D glTF Exporter 1.000x284978"
	},
	"nodes":[{
		"name":"Sphere",
		"translation":[0.4535464644432068,
		31.528301239013673,
		-1.4152034521102906],
		"rotation":[0.0,
		-0.28254133462905886,
		0.0,
		-0.9592550992965698],
		"scale":[1.0,
		1.0,
		1.0],
		"mesh":0
	},
	{
		"name":"Null",
		"translation":[4.155721664428711,
		33.93704605102539,
		-2.4329495429992677],
		"rotation":[-4.389247632019533e-9,
		-0.33385777473449709,
		-1.5545809084471785e-9,
		0.9426234364509583],
		"scale":[1.0,
		1.0,
		1.0],
		"children":[2]
	},
	{
		"name":"Lt_Wing_2308.Shape",
		"translation":[0.0,
		0.0,
		8.223872001649564e-16],
		"rotation":[0.0,
		-0.7229223251342773,
		0.0,
		0.6909292936325073],
		"scale":[1.0,
		1.0,
		1.0],
		"mesh":1,
		"children":[3]
	},
	{
		"name":"Lt_Wing_2308.Shape.1",
		"translation":[-0.7827717661857605,
		-52.07304382324219,
		3.4729366302490236],
		"rotation":[0.0,
		-0.06459704786539078,
		0.0,
		-0.9979114532470703],
		"scale":[1.0,
		1.0,
		1.0],
		"mesh":2
	},
	{
		"name":"Null.1",
		"translation":[-3.3819522857666017,
		34.23011779785156,
		-2.3631882667541506],
		"rotation":[0.0,
		-0.32430949807167055,
		0.0,
		-0.9459510445594788],
		"scale":[1.0,
		1.0,
		1.0],
		"children":[5]
	},
	{
		"name":"Rt_Wing_2308.Shape",
		"translation":[0.0,
		3.0527030149595308e-14,
		0.0],
		"rotation":[0.0,
		-0.7229223251342773,
		0.0,
		-0.6909292936325073],
		"scale":[1.0,
		1.0,
		1.0],
		"mesh":3,
		"children":[6]
	},
	{
		"name":"Rt_Wing_2308.Shape.1",
		"translation":[-2.034548282623291,
		-52.07311248779297,
		2.899418354034424],
		"rotation":[0.0,
		-0.46169179677963259,
		0.0,
		0.8870404362678528],
		"scale":[1.0,
		1.0,
		1.0],
		"mesh":4
	}],
	"animations":[{
		"samplers":[{
			"output":5,
			"input":4,
			"interpolation":"LINEAR"
		},
		{
			"output":11,
			"input":10,
			"interpolation":"LINEAR"
		}],
		"channels":[{
			"sampler":0,
			"target":{
				"node":2,
				"path":"rotation"
			}
		},
		{
			"sampler":1,
			"target":{
				"node":5,
				"path":"rotation"
			}
		}]
	}],
	"meshes":[{
		"name":"Sphere",
		"primitives":[{
			"attributes":{
				"POSITION":1
			},
			"indices":0,
			"material":0
		}]
	},
	{
		"name":"Lt_Wing_2308.Shape",
		"primitives":[{
			"attributes":{
				"POSITION":3
			},
			"indices":2,
			"material":1
		}]
	},
	{
		"name":"Lt_Wing_2308.Shape.1",
		"primitives":[{
			"attributes":{
				"POSITION":7
			},
			"indices":6,
			"material":1
		}]
	},
	{
		"name":"Rt_Wing_2308.Shape",
		"primitives":[{
			"attributes":{
				"POSITION":9
			},
			"indices":8,
			"material":1
		}]
	},
	{
		"name":"Rt_Wing_2308.Shape.1",
		"primitives":[{
			"attributes":{
				"POSITION":13
			},
			"indices":12,
			"material":1
		}]
	}],
	"bufferViews":[{
		"buffer":0,
		"byteOffset":0,
		"byteLength":14400,
		"target":34963
	},
	{
		"buffer":0,
		"byteOffset":14400,
		"byteLength":14424,
		"target":34962
	},
	{
		"buffer":1,
		"byteOffset":0,
		"byteLength":19776,
		"target":34963
	},
	{
		"buffer":1,
		"byteOffset":19776,
		"byteLength":27696,
		"target":34962
	},
	{
		"buffer":2,
		"byteOffset":0,
		"byteLength":9620
	},
	{
		"buffer":3,
		"byteOffset":0,
		"byteLength":45720,
		"target":34963
	},
	{
		"buffer":3,
		"byteOffset":45720,
		"byteLength":45900,
		"target":34962
	},
	{
		"buffer":4,
		"byteOffset":0,
		"byteLength":11256,
		"target":34963
	},
	{
		"buffer":4,
		"byteOffset":11256,
		"byteLength":12480,
		"target":34962
	},
	{
		"buffer":5,
		"byteOffset":0,
		"byteLength":9620
	},
	{
		"buffer":6,
		"byteOffset":0,
		"byteLength":34380,
		"target":34963
	},
	{
		"buffer":6,
		"byteOffset":34380,
		"byteLength":34068,
		"target":34962
	}],
	"accessors":[{
		"bufferView":0,
		"componentType":5123,
		"type":"SCALAR",
		"count":7200,
		"byteOffset":0,
		"min":[0],
		"max":[1201]
	},
	{
		"bufferView":1,
		"componentType":5126,
		"type":"VEC3",
		"count":1202,
		"byteOffset":0,
		"min":[-6.349793434143066,
		-8.569024085998536,
		-6.337263584136963],
		"max":[6.349793434143066,
		8.569024085998536,
		6.337263584136963]
	},
	{
		"bufferView":2,
		"componentType":5123,
		"type":"SCALAR",
		"count":9888,
		"byteOffset":0,
		"min":[0],
		"max":[2307]
	},
	{
		"bufferView":3,
		"componentType":5126,
		"type":"VEC3",
		"count":2308,
		"byteOffset":0,
		"min":[-34.801612854003909,
		-26.75033950805664,
		-42.73204803466797],
		"max":[0.30207934975624087,
		5.095302581787109,
		0.18004362285137177]
	},
	{
		"bufferView":4,
		"componentType":5126,
		"type":"SCALAR",
		"count":481,
		"byteOffset":0,
		"min":[0.0],
		"max":[16.0]
	},
	{
		"bufferView":4,
		"componentType":5126,
		"type":"VEC4",
		"count":481,
		"byteOffset":1924,
		"min":[0.0,
		-0.7660444378852844,
		-7.318610162343475e-9,
		-1.0],
		"max":[1.3961011235963384e-9,
		0.0,
		0.0,
		0.9999959468841553]
	},
	{
		"bufferView":5,
		"componentType":5123,
		"type":"SCALAR",
		"count":22860,
		"byteOffset":0,
		"min":[0],
		"max":[3824]
	},
	{
		"bufferView":6,
		"componentType":5126,
		"type":"VEC3",
		"count":3825,
		"byteOffset":0,
		"min":[-27.884910583496095,
		25.3204345703125,
		-50.27470016479492],
		"max":[0.6153258681297302,
		54.958343505859378,
		-4.660655498504639]
	},
	{
		"bufferView":7,
		"componentType":5123,
		"type":"SCALAR",
		"count":5628,
		"byteOffset":0,
		"min":[0],
		"max":[1039]
	},
	{
		"bufferView":8,
		"componentType":5126,
		"type":"VEC3",
		"count":1040,
		"byteOffset":0,
		"min":[-0.30208003520965578,
		-3.483855962753296,
		-26.478334426879884],
		"max":[21.512556076049806,
		5.095314979553223,
		0.1800430864095688]
	},
	{
		"bufferView":9,
		"componentType":5126,
		"type":"SCALAR",
		"count":481,
		"byteOffset":0,
		"min":[0.0],
		"max":[16.0]
	},
	{
		"bufferView":9,
		"componentType":5126,
		"type":"VEC4",
		"count":481,
		"byteOffset":1924,
		"min":[0.0,
		-0.7660444378852844,
		0.0,
		-1.0],
		"max":[0.0,
		0.0,
		0.0,
		-0.6427876353263855]
	},
	{
		"bufferView":10,
		"componentType":5123,
		"type":"SCALAR",
		"count":17190,
		"byteOffset":0,
		"min":[0],
		"max":[2838]
	},
	{
		"bufferView":11,
		"componentType":5126,
		"type":"VEC3",
		"count":2839,
		"byteOffset":0,
		"min":[-16.89450454711914,
		25.322708129882814,
		-56.2057991027832],
		"max":[-1.514363169670105,
		54.944915771484378,
		-4.790915489196777]
	}],
	"buffers":[{
		"uri":"data:application/octet-stream;base64,",
		"byteLength":28824
	},
	{
		"uri":"data:application/octet-stream;base64,",
		"byteLength":47472
	},
	{
		"uri":"data:application/octet-stream;base64,",
		"byteLength":9620
	},
	{
		"uri":"data:application/octet-stream;base64,",
		"byteLength":91620
	},
	{
		"uri":"data:application/octet-stream;base64,",
		"byteLength":23736
	},
	{
		"uri":"data:application/octet-stream;base64,",
		"byteLength":9620
	},
	{
		"uri":"data:application/octet-stream;base64,",
		"byteLength":68448
	}],
	"materials":[{
		"pbrMetallicRoughness":{
			"baseColorFactor":[1.0,
			1.0,
			1.0,
			1.0],
			"metallicFactor":1.0,
			"roughnessFactor":1.0
		},
		"emissiveFactor":[0.0,
		0.0,
		1.0],
		"alphaMode":"OPAQUE",
		"doubleSided":false,
		"name":"Mat"
	},
	{
		"pbrMetallicRoughness":{
			"baseColorFactor":[0.8,
			0.8,
			0.8,
			0.20999999999999997],
			"metallicFactor":0.0,
			"roughnessFactor":0.5
		},
		"emissiveFactor":[0.0,
		0.0,
		0.0],
		"alphaMode":"BLEND",
		"doubleSided":false,
		"name":"Mat.5"
	}]
}