{
	"scenes":[{
		"nodes":[0]
	}],
	"asset":{
		"version":"2.0",
		"generator":"Created using the official Cinema 4D glTF Exporter 1.000x284978"
	},
	"nodes":[{
		"name":"Null",
		"translation":[0.018833637237548829,
		136.4161376953125,
		-6.4110612869262699],
		"rotation":[0.0,
		0.0,
		0.0,
		-1.0],
		"scale":[1.0,
		1.0,
		1.0],
		"children":[1,
		2,
		4]
	},
	{
		"name":"Sphere",
		"translation":[-0.018833637237548829,
		-7.234026908874512,
		-3.0068306922912599],
		"rotation":[0.0,
		-0.28254133462905886,
		0.0,
		-0.9592550992965698],
		"scale":[1.0,
		1.0,
		1.0],
		"mesh":0
	},
	{
		"name":"Lt_Wing_2308.Shape",
		"translation":[8.201181411743164,
		3.6169230937957765,
		1.5034148693084717],
		"rotation":[0.0,
		0.0,
		0.0,
		-1.0],
		"scale":[1.0,
		1.0,
		1.0],
		"mesh":1,
		"children":[3]
	},
	{
		"name":"Lt_Wing_2308.Shape.1",
		"translation":[-7.5186991691589359,
		-140.03306579589845,
		5.926448345184326],
		"rotation":[0.0,
		-0.06459704786539078,
		0.0,
		-0.9979114532470703],
		"scale":[1.0,
		1.0,
		1.0],
		"mesh":2
	},
	{
		"name":"Rt_Wing_2308.Shape",
		"translation":[-8.182347297668457,
		3.6171038150787355,
		1.503415822982788],
		"rotation":[0.0,
		0.0,
		0.0,
		-1.0],
		"scale":[1.0,
		1.0,
		1.0],
		"mesh":3,
		"children":[5]
	},
	{
		"name":"Rt_Wing_2308.Shape.1",
		"translation":[0.6635088920593262,
		-140.0332489013672,
		9.501983642578125],
		"rotation":[0.0,
		-0.46169179677963259,
		0.0,
		0.8870404362678528],
		"scale":[1.0,
		1.0,
		1.0],
		"mesh":4
	}],
	"animations":[{
		"samplers":[{
			"output":5,
			"input":4,
			"interpolation":"LINEAR"
		},
		{
			"output":11,
			"input":10,
			"interpolation":"LINEAR"
		}],
		"channels":[{
			"sampler":0,
			"target":{
				"node":2,
				"path":"rotation"
			}
		},
		{
			"sampler":1,
			"target":{
				"node":4,
				"path":"rotation"
			}
		}]
	}],
	"meshes":[{
		"name":"Sphere",
		"primitives":[{
			"attributes":{
				"POSITION":1
			},
			"indices":0,
			"material":0
		}]
	},
	{
		"name":"Lt_Wing_2308.Shape",
		"primitives":[{
			"attributes":{
				"POSITION":3
			},
			"indices":2,
			"material":1
		}]
	},
	{
		"name":"Lt_Wing_2308.Shape.1",
		"primitives":[{
			"attributes":{
				"POSITION":7
			},
			"indices":6,
			"material":1
		}]
	},
	{
		"name":"Rt_Wing_2308.Shape",
		"primitives":[{
			"attributes":{
				"POSITION":9
			},
			"indices":8,
			"material":1
		}]
	},
	{
		"name":"Rt_Wing_2308.Shape.1",
		"primitives":[{
			"attributes":{
				"POSITION":13
			},
			"indices":12,
			"material":1
		}]
	}],
	"bufferViews":[{
		"buffer":0,
		"byteOffset":0,
		"byteLength":14400,
		"target":34963
	},
	{
		"buffer":0,
		"byteOffset":14400,
		"byteLength":14424,
		"target":34962
	},
	{
		"buffer":1,
		"byteOffset":0,
		"byteLength":19776,
		"target":34963
	},
	{
		"buffer":1,
		"byteOffset":19776,
		"byteLength":27696,
		"target":34962
	},
	{
		"buffer":2,
		"byteOffset":0,
		"byteLength":9620
	},
	{
		"buffer":3,
		"byteOffset":0,
		"byteLength":45720,
		"target":34963
	},
	{
		"buffer":3,
		"byteOffset":45720,
		"byteLength":45900,
		"target":34962
	},
	{
		"buffer":4,
		"byteOffset":0,
		"byteLength":11256,
		"target":34963
	},
	{
		"buffer":4,
		"byteOffset":11256,
		"byteLength":12480,
		"target":34962
	},
	{
		"buffer":5,
		"byteOffset":0,
		"byteLength":9620
	},
	{
		"buffer":6,
		"byteOffset":0,
		"byteLength":34380,
		"target":34963
	},
	{
		"buffer":6,
		"byteOffset":34380,
		"byteLength":34068,
		"target":34962
	}],
	"accessors":[{
		"bufferView":0,
		"componentType":5123,
		"type":"SCALAR",
		"count":7200,
		"byteOffset":0,
		"min":[0],
		"max":[1201]
	},
	{
		"bufferView":1,
		"componentType":5126,
		"type":"VEC3",
		"count":1202,
		"byteOffset":0,
		"min":[-17.07564926147461,
		-23.043529510498048,
		-17.041954040527345],
		"max":[17.07564926147461,
		23.043529510498048,
		17.041954040527345]
	},
	{
		"bufferView":2,
		"componentType":5123,
		"type":"SCALAR",
		"count":9888,
		"byteOffset":0,
		"min":[0],
		"max":[2307]
	},
	{
		"bufferView":3,
		"componentType":5126,
		"type":"VEC3",
		"count":2308,
		"byteOffset":0,
		"min":[-3.1017818450927736,
		-71.93610382080078,
		-148.20135498046876],
		"max":[3.1017818450927736,
		13.702115058898926,
		4.245951700854785e-15]
	},
	{
		"bufferView":4,
		"componentType":5126,
		"type":"SCALAR",
		"count":481,
		"byteOffset":0,
		"min":[0.0],
		"max":[16.0]
	},
	{
		"bufferView":4,
		"componentType":5126,
		"type":"VEC4",
		"count":481,
		"byteOffset":1924,
		"min":[0.0,
		-0.7660444378852844,
		-7.318610162343475e-9,
		-1.0],
		"max":[1.3961011235963384e-9,
		0.0,
		0.0,
		0.9999959468841553]
	},
	{
		"bufferView":5,
		"componentType":5123,
		"type":"SCALAR",
		"count":22860,
		"byteOffset":0,
		"min":[0],
		"max":[3824]
	},
	{
		"bufferView":6,
		"componentType":5126,
		"type":"VEC3",
		"count":3825,
		"byteOffset":0,
		"min":[6.987212657928467,
		68.09085845947266,
		-151.9335174560547],
		"max":[27.472301483154298,
		147.7921142578125,
		-9.00373649597168]
	},
	{
		"bufferView":7,
		"componentType":5123,
		"type":"SCALAR",
		"count":5628,
		"byteOffset":0,
		"min":[0],
		"max":[1039]
	},
	{
		"bufferView":8,
		"componentType":5126,
		"type":"VEC3",
		"count":1040,
		"byteOffset":0,
		"min":[-3.1017823219299318,
		-9.368667602539063,
		-91.62644958496094],
		"max":[3.0999035835266115,
		13.7021484375,
		1.6417782330372375e-15]
	},
	{
		"bufferView":9,
		"componentType":5126,
		"type":"SCALAR",
		"count":481,
		"byteOffset":0,
		"min":[0.0],
		"max":[16.0]
	},
	{
		"bufferView":9,
		"componentType":5126,
		"type":"VEC4",
		"count":481,
		"byteOffset":1924,
		"min":[0.0,
		-0.7660444378852844,
		0.0,
		-1.0],
		"max":[0.0,
		0.0,
		0.0,
		-0.6427876353263855]
	},
	{
		"bufferView":10,
		"componentType":5123,
		"type":"SCALAR",
		"count":17190,
		"byteOffset":0,
		"min":[0],
		"max":[2838]
	},
	{
		"bufferView":11,
		"componentType":5126,
		"type":"VEC3",
		"count":2839,
		"byteOffset":0,
		"min":[-130.41848754882813,
		68.09696960449219,
		-89.12870788574219],
		"max":[-11.470480918884278,
		147.75599670410157,
		-6.9698896408081059]
	}],
	"buffers":[{
		"uri":"data:application/octet-stream;base64,",
		"byteLength":28824
	},
	{
		"uri":"data:application/octet-stream;base64,",
		"byteLength":47472
	},
	{
		"uri":"data:application/octet-stream;base64,",
		"byteLength":9620
	},
	{
		"uri":"data:application/octet-stream;base64,",
		"byteLength":91620
	},
	{
		"uri":"data:application/octet-stream;base64,",
		"byteLength":23736
	},
	{
		"uri":"data:application/octet-stream;base64,",
		"byteLength":9620
	},
	{
		"uri":"data:application/octet-stream;base64,",
		"byteLength":68448
	}],
	"materials":[{
		"pbrMetallicRoughness":{
			"baseColorFactor":[1.0,
			1.0,
			1.0,
			1.0],
			"metallicFactor":1.0,
			"roughnessFactor":1.0
		},
		"emissiveFactor":[0.0,
		0.0,
		1.0],
		"alphaMode":"OPAQUE",
		"doubleSided":false,
		"name":"Mat"
	},
	{
		"pbrMetallicRoughness":{
			"baseColorFactor":[0.8,
			0.8,
			0.8,
			0.20999999999999997],
			"metallicFactor":0.0,
			"roughnessFactor":0.5
		},
		"emissiveFactor":[0.0,
		0.0,
		0.0],
		"alphaMode":"BLEND",
		"doubleSided":false,
		"name":"Mat.5"
	}]
}