{
	"scenes":[{
		"nodes":[0]
	}],
	"asset":{
		"version":"2.0",
		"generator":"Created using the official Cinema 4D glTF Exporter 1.000x284978"
	},
	"nodes":[{
		"name":"Null",
		"translation":[-0.14034272730350495,
		33.114261627197269,
		-2.246090888977051],
		"rotation":[-0.009194396436214447,
		0.010474827140569687,
		-0.007715466432273388,
		-0.9998731017112732],
		"scale":[1.0,
		1.0,
		1.0],
		"children":[1,
		2,
		5]
	},
	{
		"name":"Sphere",
		"translation":[0.010610717348754406,
		-0.4355759918689728,
		-1.0466049909591675],
		"rotation":[0.0,
		-0.28254133462905886,
		0.0,
		-0.9592550992965698],
		"scale":[1.0,
		1.0,
		1.0],
		"mesh":0
	},
	{
		"name":"Null",
		"translation":[3.424609661102295,
		0.48140016198158266,
		0.4658123254776001],
		"rotation":[-4.317952218002574e-9,
		-0.36807766556739809,
		-1.7093464421691352e-9,
		0.9297950267791748],
		"scale":[1.0,
		1.0,
		1.0],
		"children":[3]
	},
	{
		"name":"Lt_Wing_2308.Shape",
		"translation":[0.0,
		0.0,
		2.6645352591003758e-15],
		"rotation":[0.0,
		-0.7381061911582947,
		0.0,
		0.6746845245361328],
		"scale":[1.0,
		1.0,
		1.0],
		"mesh":1,
		"children":[4]
	},
	{
		"name":"Lt_Wing_2308.Shape.1",
		"translation":[-0.40446367859840395,
		-26.90650749206543,
		1.7944908142089844],
		"rotation":[0.0,
		-0.06459704786539078,
		0.0,
		-0.9979114532470703],
		"scale":[1.0,
		1.0,
		1.0],
		"mesh":2
	},
	{
		"name":"Null.1",
		"translation":[-3.435220241546631,
		0.6065351963043213,
		0.5807927250862122],
		"rotation":[-0.03138037770986557,
		-0.36027657985687258,
		0.014763090759515763,
		-0.9322006702423096],
		"scale":[1.0,
		1.0,
		1.0],
		"children":[6]
	},
	{
		"name":"Rt_Wing_2308.Shape",
		"translation":[-1.7763568394002506e-15,
		0.0,
		-8.881784197001253e-16],
		"rotation":[0.0,
		-0.7381061911582947,
		0.0,
		-0.6746845245361328],
		"scale":[1.0,
		1.0,
		1.0],
		"mesh":3,
		"children":[7]
	},
	{
		"name":"Rt_Wing_2308.Shape.1",
		"translation":[-1.0512654781341553,
		-26.906543731689454,
		1.4981498718261719],
		"rotation":[0.0,
		-0.46169179677963259,
		0.0,
		0.8870404362678528],
		"scale":[1.0,
		1.0,
		1.0],
		"mesh":4
	}],
	"animations":[{
		"samplers":[{
			"output":5,
			"input":4,
			"interpolation":"LINEAR"
		},
		{
			"output":11,
			"input":10,
			"interpolation":"LINEAR"
		}],
		"channels":[{
			"sampler":0,
			"target":{
				"node":3,
				"path":"rotation"
			}
		},
		{
			"sampler":1,
			"target":{
				"node":6,
				"path":"rotation"
			}
		}]
	}],
	"meshes":[{
		"name":"Sphere",
		"primitives":[{
			"attributes":{
				"POSITION":1
			},
			"indices":0,
			"material":0
		}]
	},
	{
		"name":"Lt_Wing_2308.Shape",
		"primitives":[{
			"attributes":{
				"POSITION":3
			},
			"indices":2,
			"material":1
		}]
	},
	{
		"name":"Lt_Wing_2308.Shape.1",
		"primitives":[{
			"attributes":{
				"POSITION":7
			},
			"indices":6,
			"material":1
		}]
	},
	{
		"name":"Rt_Wing_2308.Shape",
		"primitives":[{
			"attributes":{
				"POSITION":9
			},
			"indices":8,
			"material":1
		}]
	},
	{
		"name":"Rt_Wing_2308.Shape.1",
		"primitives":[{
			"attributes":{
				"POSITION":13
			},
			"indices":12,
			"material":1
		}]
	}],
	"bufferViews":[{
		"buffer":0,
		"byteOffset":0,
		"byteLength":14400,
		"target":34963
	},
	{
		"buffer":0,
		"byteOffset":14400,
		"byteLength":14424,
		"target":34962
	},
	{
		"buffer":1,
		"byteOffset":0,
		"byteLength":19776,
		"target":34963
	},
	{
		"buffer":1,
		"byteOffset":19776,
		"byteLength":27696,
		"target":34962
	},
	{
		"buffer":2,
		"byteOffset":0,
		"byteLength":9620
	},
	{
		"buffer":3,
		"byteOffset":0,
		"byteLength":45720,
		"target":34963
	},
	{
		"buffer":3,
		"byteOffset":45720,
		"byteLength":45900,
		"target":34962
	},
	{
		"buffer":4,
		"byteOffset":0,
		"byteLength":11256,
		"target":34963
	},
	{
		"buffer":4,
		"byteOffset":11256,
		"byteLength":12480,
		"target":34962
	},
	{
		"buffer":5,
		"byteOffset":0,
		"byteLength":9620
	},
	{
		"buffer":6,
		"byteOffset":0,
		"byteLength":34380,
		"target":34963
	},
	{
		"buffer":6,
		"byteOffset":34380,
		"byteLength":34068,
		"target":34962
	}],
	"accessors":[{
		"bufferView":0,
		"componentType":5123,
		"type":"SCALAR",
		"count":7200,
		"byteOffset":0,
		"min":[0],
		"max":[1201]
	},
	{
		"bufferView":1,
		"componentType":5126,
		"type":"VEC3",
		"count":1202,
		"byteOffset":0,
		"min":[-4.52948522567749,
		-6.112524509429932,
		-4.520547389984131],
		"max":[4.52948522567749,
		6.112524509429932,
		4.520547389984131]
	},
	{
		"bufferView":2,
		"componentType":5123,
		"type":"SCALAR",
		"count":9888,
		"byteOffset":0,
		"min":[0],
		"max":[2307]
	},
	{
		"bufferView":3,
		"componentType":5126,
		"type":"VEC3",
		"count":2308,
		"byteOffset":0,
		"min":[-17.98223876953125,
		-13.822088241577149,
		-22.0799503326416],
		"max":[0.1560865193605423,
		2.6327786445617677,
		0.09302980452775955]
	},
	{
		"bufferView":4,
		"componentType":5126,
		"type":"SCALAR",
		"count":481,
		"byteOffset":0,
		"min":[0.0],
		"max":[16.0]
	},
	{
		"bufferView":4,
		"componentType":5126,
		"type":"VEC4",
		"count":481,
		"byteOffset":1924,
		"min":[0.0,
		-0.7660444378852844,
		-7.318610162343475e-9,
		-1.0],
		"max":[1.3961011235963384e-9,
		0.0,
		0.0,
		0.9999959468841553]
	},
	{
		"bufferView":5,
		"componentType":5123,
		"type":"SCALAR",
		"count":22860,
		"byteOffset":0,
		"min":[0],
		"max":[3824]
	},
	{
		"bufferView":6,
		"componentType":5126,
		"type":"VEC3",
		"count":3825,
		"byteOffset":0,
		"min":[-14.408329963684082,
		13.083247184753418,
		-25.977291107177736],
		"max":[0.31794318556785586,
		28.397361755371095,
		-2.408193349838257]
	},
	{
		"bufferView":7,
		"componentType":5123,
		"type":"SCALAR",
		"count":5628,
		"byteOffset":0,
		"min":[0],
		"max":[1039]
	},
	{
		"bufferView":8,
		"componentType":5126,
		"type":"VEC3",
		"count":1040,
		"byteOffset":0,
		"min":[-0.15608687698841096,
		-1.8001328706741334,
		-13.681541442871094],
		"max":[11.11568832397461,
		2.6327850818634035,
		0.09302952885627747]
	},
	{
		"bufferView":9,
		"componentType":5126,
		"type":"SCALAR",
		"count":481,
		"byteOffset":0,
		"min":[0.0],
		"max":[16.0]
	},
	{
		"bufferView":9,
		"componentType":5126,
		"type":"VEC4",
		"count":481,
		"byteOffset":1924,
		"min":[0.0,
		-0.7660444378852844,
		0.0,
		-1.0],
		"max":[0.0,
		0.0,
		0.0,
		-0.6427876353263855]
	},
	{
		"bufferView":10,
		"componentType":5123,
		"type":"SCALAR",
		"count":17190,
		"byteOffset":0,
		"min":[0],
		"max":[2838]
	},
	{
		"bufferView":11,
		"componentType":5126,
		"type":"VEC3",
		"count":2839,
		"byteOffset":0,
		"min":[-8.729509353637696,
		13.084421157836914,
		-29.04193115234375],
		"max":[-0.7824821472167969,
		28.390422821044923,
		-2.4754996299743654]
	}],
	"buffers":[{
		"uri":"data:application/octet-stream;base64,",
		"byteLength":28824
	},
	{
		"uri":"data:application/octet-stream;base64,",
		"byteLength":47472
	},
	{
		"uri":"data:application/octet-stream;base64,",
		"byteLength":9620
	},
	{
		"uri":"data:application/octet-stream;base64,",
		"byteLength":91620
	},
	{
		"uri":"data:application/octet-stream;base64,",
		"byteLength":23736
	},
	{
		"uri":"data:application/octet-stream;base64,",
		"byteLength":9620
	},
	{
		"uri":"data:application/octet-stream;base64,",
		"byteLength":68448
	}],
	"materials":[{
		"pbrMetallicRoughness":{
			"baseColorFactor":[1.0,
			1.0,
			1.0,
			1.0],
			"metallicFactor":1.0,
			"roughnessFactor":1.0
		},
		"emissiveFactor":[0.0,
		0.0,
		1.0],
		"alphaMode":"OPAQUE",
		"doubleSided":false,
		"name":"Mat"
	},
	{
		"pbrMetallicRoughness":{
			"baseColorFactor":[0.8,
			0.8,
			0.8,
			0.20999999999999997],
			"metallicFactor":0.0,
			"roughnessFactor":0.5
		},
		"emissiveFactor":[0.0,
		0.0,
		0.0],
		"alphaMode":"BLEND",
		"doubleSided":false,
		"name":"Mat.5"
	}]
}